<svg viewBox="0 0 1400 600" xmlns="http://www.w3.org/2000/svg">
<g transform="translate(1320,640)" fill="none" stroke="#B19463" stroke-opacity="0.14" stroke-width="1.5">
<circle r="120"/>
<circle r="190"/>
<circle r="260"/>
<circle r="330"/>
<circle r="400"/>
<circle r="470"/>
</g>
<g fill="none" stroke="#B19463" stroke-opacity="0.13" stroke-width="1.3">
<path d="M331,154 L331,0 L403,0"/>
<path d="M374,596 L185,596 L185,542"/>
<path d="M428,71 L428,128 L345,128"/>
<path d="M126,228 L0,228 L0,150"/>
<path d="M136,296 L232,296 L232,173"/>
<path d="M698,185 L698,247 L590,247"/>
<path d="M64,577 L64,600 L0,600"/>
<path d="M321,476 L321,557 L473,557"/>
<path d="M715,249 L715,342 L579,342"/>
<path d="M294,74 L294,145 L103,145"/>
</g>
<g fill="#B19463" fill-opacity="0.2">
<circle cx="331" cy="154" r="2.4"/>
<circle cx="403" cy="0" r="2.4"/>
<circle cx="374" cy="596" r="2.4"/>
<circle cx="185" cy="542" r="2.4"/>
<circle cx="428" cy="71" r="2.4"/>
<circle cx="345" cy="128" r="2.4"/>
<circle cx="126" cy="228" r="2.4"/>
<circle cx="0" cy="150" r="2.4"/>
<circle cx="136" cy="296" r="2.4"/>
<circle cx="232" cy="173" r="2.4"/>
<circle cx="698" cy="185" r="2.4"/>
<circle cx="590" cy="247" r="2.4"/>
<circle cx="64" cy="577" r="2.4"/>
<circle cx="0" cy="600" r="2.4"/>
<circle cx="321" cy="476" r="2.4"/>
<circle cx="473" cy="557" r="2.4"/>
<circle cx="715" cy="249" r="2.4"/>
<circle cx="579" cy="342" r="2.4"/>
<circle cx="294" cy="74" r="2.4"/>
<circle cx="103" cy="145" r="2.4"/>
</g>
</svg>