<svg viewBox="0 0 1400 300" xmlns="http://www.w3.org/2000/svg">
<defs><pattern id="d2" width="24" height="24" patternUnits="userSpaceOnUse"><circle cx="1.2" cy="1.2" r="1.2" fill="#B19463" opacity="0.14"/></pattern></defs>
<rect width="1400" height="300" rx="26" fill="#F7F4ED"/>
<rect width="1400" height="300" rx="26" fill="url(#d2)"/>
<g transform="translate(700,150)">
<circle r="92" fill="none" stroke="#171717" stroke-width="2"/>
<ellipse rx="38" ry="92" fill="none" stroke="#171717" stroke-opacity="0.5" stroke-width="1.4"/>
<ellipse rx="92" ry="34" fill="none" stroke="#171717" stroke-opacity="0.5" stroke-width="1.4"/>
<ellipse rx="92" ry="65" fill="none" stroke="#171717" stroke-opacity="0.25" stroke-width="1.2"/>
</g>
<path d="M700.0,56.0 L700.0,-40.0" stroke="#B19463" stroke-width="1.4" stroke-opacity="0.6" fill="none" stroke-dasharray="2 5"/>
<circle cx="700.0" cy="-40.0" r="5" fill="#B19463"/>
<text x="700.0" y="-52.0" font-family="Manrope, sans-serif" font-size="15" font-weight="600" fill="#171717" text-anchor="middle">Manufacturing</text>
<path d="M781.4,103.0 L864.5,55.0" stroke="#B19463" stroke-width="1.4" stroke-opacity="0.6" fill="none" stroke-dasharray="2 5"/>
<circle cx="864.5" cy="55.0" r="5" fill="#B19463"/>
<text x="878.4" y="51.0" font-family="Manrope, sans-serif" font-size="15" font-weight="600" fill="#171717" text-anchor="start">Healthcare</text>
<path d="M781.4,197.0 L864.5,245.0" stroke="#B19463" stroke-width="1.4" stroke-opacity="0.6" fill="none" stroke-dasharray="2 5"/>
<circle cx="864.5" cy="245.0" r="5" fill="#B19463"/>
<text x="878.4" y="257.0" font-family="Manrope, sans-serif" font-size="15" font-weight="600" fill="#171717" text-anchor="start">Banking</text>
<path d="M700.0,244.0 L700.0,340.0" stroke="#B19463" stroke-width="1.4" stroke-opacity="0.6" fill="none" stroke-dasharray="2 5"/>
<circle cx="700.0" cy="340.0" r="5" fill="#B19463"/>
<text x="700.0" y="360.0" font-family="Manrope, sans-serif" font-size="15" font-weight="600" fill="#171717" text-anchor="middle">Retail</text>
<path d="M618.6,197.0 L535.5,245.0" stroke="#B19463" stroke-width="1.4" stroke-opacity="0.6" fill="none" stroke-dasharray="2 5"/>
<circle cx="535.5" cy="245.0" r="5" fill="#B19463"/>
<text x="521.6" y="257.0" font-family="Manrope, sans-serif" font-size="15" font-weight="600" fill="#171717" text-anchor="end">Education</text>
<path d="M618.6,103.0 L535.5,55.0" stroke="#B19463" stroke-width="1.4" stroke-opacity="0.6" fill="none" stroke-dasharray="2 5"/>
<circle cx="535.5" cy="55.0" r="5" fill="#B19463"/>
<text x="521.6" y="51.0" font-family="Manrope, sans-serif" font-size="15" font-weight="600" fill="#171717" text-anchor="end">Startups</text>
</svg>